<mxfile host="app.diagrams.net" modified="2024-01-22T03:04:14.014Z" agent="Mozilla/5.0 (Macintosh; Intel Mac OS X 10_15_7) AppleWebKit/537.36 (KHTML, like Gecko) Chrome/120.0.0.0 Safari/537.36" version="22.1.18" etag="BMnom2J3reujMP2K6Wp_" type="github">
  <diagram name="第 1 页" id="WX7jtTmxi5QYmMDlW0rR">
    <mxGraphModel>
      <root>
        <mxCell id="0" />
        <mxCell id="1" parent="0" />
      </root>
    </mxGraphModel>
  </diagram>
</mxfile>
